<?xml version="1.0" standalone="no"?>
<!DOCTYPE svg PUBLIC "-//W3C//DTD SVG 1.1//EN" "http://www.w3.org/Graphics/SVG/1.1/DTD/svg11.dtd" >
<svg xmlns="http://www.w3.org/2000/svg" xmlns:xlink="http://www.w3.org/1999/xlink" version="1.1">
<metadata></metadata>
<defs>
<font id="londontworegular" horiz-adv-x="839" >
<font-face units-per-em="2048" ascent="1638" descent="-410" />
<missing-glyph horiz-adv-x="694" />
<glyph horiz-adv-x="0" />
<glyph horiz-adv-x="682" />
<glyph horiz-adv-x="860" d="M45 1460q33 -80 67.5 -147.5t80 -116.5t103.5 -76.5t142 -27.5q125 0 221.5 92t155.5 276l-229 -2q-31 -86 -66 -125t-88 -39q-98 0 -149 164z" />
<glyph horiz-adv-x="882" d="M274 1286q0 -33 14.5 -62.5t38 -51t54.5 -34t65 -12.5q72 0 122 47.5t50 112.5q0 33 -13 61.5t-36.5 51t-54.5 36t-68 13.5q-70 0 -121 -48t-51 -114z" />
<glyph horiz-adv-x="929" d="M219 1311q0 -55 24.5 -101.5t63.5 -79t83 -50t85 -17.5q53 0 99.5 19.5t80 53t53 79t19.5 96.5t-19.5 95t-53 77t-80 52t-99.5 19t-99 -19t-81 -52t-55.5 -77t-20.5 -95zM385 1305q0 41 26.5 68.5t65.5 27.5t65.5 -27.5t26.5 -68.5q0 -37 -26.5 -64t-65.5 -27t-65.5 27 t-26.5 64z" />
<glyph unicode="&#xa;" horiz-adv-x="1040" d="M92 1069h121l418 449h-240zM475 1069h127l438 449h-258z" />
<glyph horiz-adv-x="946" d="M219 -150q0 -37 13.5 -75.5t41 -70.5t71.5 -52.5t108 -20.5q35 0 76.5 6.5t91.5 22.5v203q-29 -14 -56.5 -18.5t-50 -1.5t-37 12.5t-14.5 21.5q0 63 50 117.5t155 132.5h-238q-20 -6 -55 -24.5t-70 -51.5t-60.5 -82t-25.5 -119z" />
<glyph horiz-adv-x="931" d="M57 1528l305 -465h222l299 465h-262l-150 -164l-152 164h-262z" />
<glyph unicode="&#xd;" horiz-adv-x="575" d="M145 -27h269v1084l-269 -111v-973z" />
<glyph horiz-adv-x="385" d="M-487 -96h280l1118 1526h-280z" />
<glyph horiz-adv-x="1110" d="M25 741h157v-819l267 74v745h143l57 230h-200v45q0 90 31.5 149.5t101.5 59.5q49 0 80.5 -44t35.5 -130l265 49q-16 332 -367 332q-205 0 -309.5 -110t-104.5 -296v-55h-102zM694 -27h267v1043l-267 -53v-990z" />
<glyph horiz-adv-x="1234" d="M45 723h127v-750h268v750h156l53 223h-209v33q0 98 16.5 164.5t65.5 66.5q33 0 68 -20.5t65 -54.5l95 235q-53 31 -117 52.5t-111 21.5q-168 0 -259 -94.5t-91 -302.5v-101h-76zM743 244q0 -74 32 -129.5t81 -93t106.5 -56t108.5 -18.5q39 0 84 9t70 30l24 262 q-37 -27 -79 -47.5t-76 -20.5q-14 0 -28.5 3t-27 14.5t-19.5 31t-7 52.5v1183l-269 -84v-1136z" />
<glyph horiz-adv-x="1122" d="M-51 182l229 191v-400h950l-77 234h-594v385l319 262v305l-319 -262v528h-279v-747l-229 -191v-305z" />
<glyph horiz-adv-x="552" d="M-51 260l188 162v-449h269v672l190 160v309l-190 -166v531l-269 -95v-655l-188 -160v-309z" />
<glyph horiz-adv-x="1466" d="M25 -27h1343l80 234h-963l877 1067l41 153h-1272l-92 -237h919l-872 -1049zM332 1974l305 -465h221l301 465h-264l-147 -164l-154 164h-262z" />
<glyph horiz-adv-x="997" d="M25 -6h893l67 231h-541l474 625l40 143h-862l-71 -231h510l-478 -623zM106 1548l306 -465h219l301 465h-264l-148 -164l-151 164h-263z" />
<glyph unicode=" "  horiz-adv-x="694" />
<glyph unicode="&#x09;" horiz-adv-x="694" />
<glyph unicode="&#xa0;" horiz-adv-x="694" />
<glyph unicode="!" horiz-adv-x="585" d="M61 88l242 -238l246 252l-240 238zM154 1452l16 -1092h264l17 1092h-297z" />
<glyph unicode="&#x22;" horiz-adv-x="749" d="M80 1516l29 -601h174l26 601h-229zM430 1516l33 -601h180l31 601h-244z" />
<glyph unicode="#" horiz-adv-x="1456" d="M156 395h141l-80 -387h268l80 387h185l-80 -387h266l80 387h284v238h-233l45 217h188v235h-139l84 394h-268l-82 -394h-184l80 394h-269l-80 -394h-286v-235h237l-45 -217h-192v-238zM616 633l43 217h187l-45 -217h-185z" />
<glyph unicode="$" horiz-adv-x="1191" d="M53 180q92 -84 191.5 -130t216.5 -64v-189l219 180q125 8 208 55.5t133 110t70.5 131t20.5 121.5q0 154 -97 251t-290 153v346q25 -2 58.5 -12.5t66.5 -26.5t62.5 -37.5t48.5 -44.5l114 205q-66 66 -159 113t-187 57v188l-221 -176q-121 -6 -203 -46t-131 -94 t-70.5 -116.5t-21.5 -116.5q0 -68 20.5 -130t65.5 -115.5t116.5 -97.5t176.5 -74v-379q-80 14 -142.5 45.5t-140.5 103.5zM348 1020q0 43 30 83t81 42v-252q-68 27 -89.5 62.5t-21.5 64.5zM727 238l2 286q63 -27 90 -59.5t27 -85.5q0 -57 -35 -97t-84 -44z" />
<glyph unicode="%" horiz-adv-x="1697" d="M53 1073q0 -80 31 -150.5t83 -122.5t122.5 -83t150.5 -31t149.5 31t123 83t84 122.5t30.5 150.5t-30.5 150.5t-84 123t-123 83t-149.5 30.5t-150.5 -30.5t-122.5 -83t-83 -123t-31 -150.5zM111 -35h276l1135 1465h-265zM248 1073q0 39 15.5 73t41 60.5t60 42t73.5 15.5 t73 -15.5t59.5 -41t41 -60.5t15.5 -74t-15.5 -73.5t-41 -60.5t-59.5 -41t-73 -15t-73.5 14t-60 41t-41 60.5t-15.5 74.5zM848 344q0 -80 30.5 -151.5t83 -124t124 -83t151.5 -30.5t151.5 30.5t125 83t84 124t30.5 151.5q0 82 -30.5 152.5t-84 124t-125 84t-151.5 30.5 t-151.5 -30.5t-124 -84t-83 -124t-30.5 -152.5zM1051 348q0 39 14 73t39.5 59.5t60.5 41t74 15.5t74 -14.5t60.5 -40t41 -60.5t15.5 -74q0 -41 -15.5 -74.5t-41 -60.5t-60.5 -41t-74 -14t-74 14t-60.5 40t-39.5 60.5t-14 75.5z" />
<glyph unicode="&#x26;" horiz-adv-x="1374" d="M84 369q0 -80 37 -153t100.5 -128t147.5 -89t178 -34q152 0 251 48t173 130l223 -215l188 174l-264 260q31 61 48.5 123t29.5 129l-240 115q-4 -37 -16 -83t-29 -81l-168 150q117 72 167.5 153.5t50.5 198.5q0 76 -31 138.5t-82 108.5t-118.5 71.5t-143.5 25.5 q-90 0 -164 -26.5t-126 -73.5t-81 -111.5t-29 -140.5q0 -70 43 -140.5t121 -146.5q-139 -78 -202.5 -171t-63.5 -232zM362 377q0 66 34 118t120 95l268 -258q-37 -53 -98 -86t-129 -33q-80 0 -137.5 43t-57.5 121zM463 1055q0 55 32.5 92t79.5 37q51 0 87 -34t36 -89 q0 -103 -125 -164q-53 43 -81.5 83t-28.5 75z" />
<glyph unicode="'" horiz-adv-x="796" d="M88 1210l313 -309l312 309l-312 312z" />
<glyph unicode="(" horiz-adv-x="806" d="M135 487q0 -266 116 -516t339 -473l184 140q-92 94 -160.5 200.5t-113.5 217t-67.5 220t-22.5 211.5t21.5 211t65.5 218.5t110.5 214t156.5 198.5l-172 152q-225 -227 -341 -477t-116 -517z" />
<glyph unicode=")" horiz-adv-x="802" d="M39 -354l180 -146q223 223 339 474t116 518q0 266 -119 519t-350 482l-152 -172q88 -92 152.5 -194.5t107.5 -210t64.5 -216t21.5 -208.5q0 -102 -22.5 -212t-66.5 -219.5t-111.5 -215t-159.5 -199.5z" />
<glyph unicode="*" horiz-adv-x="1101" d="M76 913l192 15l2 -4l-145 -119l194 -189l103 117h2l-12 -158h276l-12 164l2 2l110 -127l191 191l-139 117l2 4l184 -19v256l-188 -12v4l139 119l-189 190l-108 -125l-4 2l14 160h-278l10 -153l-2 -2l-101 120l-192 -190l137 -119v-4l-188 14v-254z" />
<glyph unicode="+" horiz-adv-x="1439" d="M137 598h459v-512l260 82v430h459v233h-459v502l-262 -82v-420h-457v-233z" />
<glyph unicode="," horiz-adv-x="544" d="M127 -197l137 -114q84 90 126 181t40 165l-4 270l-289 -90q20 -119 28.5 -189.5t8.5 -105.5q0 -29 -12 -55.5t-35 -61.5z" />
<glyph unicode="-" d="M80 395h635l51 242h-635z" />
<glyph unicode="." horiz-adv-x="587" d="M49 96l248 -237l244 252l-250 235z" />
<glyph unicode="/" horiz-adv-x="739" d="M4 -25l246 -71l465 1487l-244 69z" />
<glyph unicode="0" horiz-adv-x="1292" d="M84 680q0 -164 42 -297t116.5 -228.5t179 -146.5t229.5 -51q115 0 217.5 49t180 144.5t122.5 231.5t43 312q0 125 -33.5 257t-102 242t-176 180.5t-255.5 70.5q-147 0 -252.5 -67.5t-175 -176t-102.5 -245t-33 -275.5zM367 700q0 106 20.5 198.5t57 159t88 104.5 t112.5 38q74 0 127 -44t88 -115.5t52.5 -162t17.5 -182.5q0 -96 -18.5 -186t-54.5 -159.5t-90 -110.5t-124 -41q-61 0 -112.5 35.5t-87 102t-56 159t-20.5 204.5z" />
<glyph unicode="1" horiz-adv-x="645" d="M188 -27h273v1559l-273 -152v-1407z" />
<glyph unicode="2" horiz-adv-x="1185" d="M39 -27h1079v240h-575q104 143 187 252.5t141.5 201t89 170t30.5 160.5q0 100 -34.5 183.5t-96 142.5t-144.5 92t-177 33q-117 0 -222.5 -45t-207.5 -133l124 -219q80 86 142.5 119.5t136.5 33.5q88 0 147.5 -59.5t59.5 -149.5q0 -63 -49 -154t-138.5 -216t-215.5 -287 t-277 -365z" />
<glyph unicode="3" horiz-adv-x="1026" d="M55 72q98 -57 202.5 -83t213.5 -26q96 0 182 37t151.5 99.5t104.5 146.5t39 178q0 57 -18.5 115.5t-48 107.5t-69.5 84t-83 45q84 39 135 119t51 190q0 94 -37.5 162t-100 111t-141.5 63.5t-161 20.5q-92 0 -180 -37t-170 -94l115 -215q53 41 115.5 75.5t123.5 34.5 q33 0 62.5 -7t52 -23.5t37 -42t14.5 -64.5q0 -53 -24.5 -90t-68.5 -60.5t-102.5 -32.5t-125.5 -3l77 -219q123 -6 199 -69t76 -179q0 -47 -17.5 -86t-47 -68t-68.5 -44t-82 -15q-74 0 -145.5 21.5t-141.5 56.5z" />
<glyph unicode="4" horiz-adv-x="1153" d="M23 305h616v-332h272v332h183v230h-183v991l-188 -101l-676 -987zM416 535l223 339v-339h-223z" />
<glyph unicode="5" horiz-adv-x="1064" d="M47 68q115 -68 215 -99.5t205 -31.5q111 0 204 35.5t161.5 101t106.5 155.5t38 199q0 113 -35 202t-98.5 152.5t-150.5 97t-191 33.5h-47l32 258h414v240h-663l-86 -797q72 33 146.5 48.5t141.5 15.5q111 0 188 -61.5t77 -186.5q0 -109 -66 -178.5t-168 -69.5 q-74 0 -152.5 28t-177.5 93z" />
<glyph unicode="6" horiz-adv-x="1116" d="M104 473q0 -123 35 -221t98.5 -169t153.5 -108.5t201 -37.5q100 0 184 31.5t145.5 89t95.5 137t34 174.5q0 94 -35 175t-95.5 140t-143.5 93t-179 34q-41 0 -82 -6t-76 -23q12 49 35 106.5t65 124t107.5 140.5t163.5 156l-158 192q-98 -80 -196.5 -189.5t-177 -242.5 t-127 -283.5t-48.5 -312.5zM377 455v34q53 43 102 62.5t105 19.5q41 0 76.5 -16t61.5 -44t41 -64.5t15 -79.5q0 -39 -14 -73t-41 -58.5t-61.5 -39t-75.5 -14.5q-90 0 -149.5 72t-59.5 201z" />
<glyph unicode="7" horiz-adv-x="1134" d="M55 1188h672l-520 -1157l242 -105l679 1504h-1073v-242z" />
<glyph unicode="8" horiz-adv-x="1140" d="M113 395q0 -92 35.5 -173t98 -140t146.5 -94t182 -35q96 0 180.5 35t146 95t97 142t35.5 178q0 209 -172 326q72 57 109 129t37 164q0 88 -35 165t-94.5 134t-139.5 90t-170 33q-88 0 -165.5 -32t-137 -90t-94.5 -138t-35 -178q1 -168 144 -277q-168 -119 -168 -334z M387 387q0 43 13.5 83t38 68.5t58 46t72.5 17.5q80 0 135.5 -56.5t55.5 -137.5q0 -92 -51.5 -153.5t-133.5 -61.5q-41 0 -75.5 15t-59 41.5t-39 62.5t-14.5 75zM412 1022q0 74 46 126t111 52q70 0 117 -51t47 -123q0 -78 -44 -130t-116 -52q-70 0 -115.5 51t-45.5 127z" />
<glyph unicode="9" horiz-adv-x="1144" d="M109 1020q0 -92 34.5 -171t96 -136.5t144.5 -90t179 -32.5q41 0 78 8t76 23q-20 -49 -48 -108.5t-71 -127.5t-103.5 -141.5t-146.5 -149.5l160 -192q98 80 196.5 189.5t176 242.5t126 283.5t48.5 312.5q0 123 -35 221t-98.5 168t-153.5 107.5t-201 37.5 q-100 0 -184 -32.5t-145.5 -92t-95 -140.5t-33.5 -179zM383 1034q0 80 54.5 134.5t135.5 54.5q90 0 151.5 -72t61.5 -203v-18q0 -9 -2 -17q-53 -43 -102 -61t-107 -18q-82 0 -137 57t-55 143z" />
<glyph unicode=":" horiz-adv-x="624" d="M72 131l241 -242l250 246l-248 244zM72 807l241 -244l250 248l-248 242z" />
<glyph unicode=";" horiz-adv-x="604" d="M57 791l246 -238l248 250l-254 237zM129 -215l139 -115q82 92 124 183.5t42 162.5l-4 273l-291 -90q23 -119 31 -190.5t8 -104.5q0 -29 -13 -55.5t-36 -63.5z" />
<glyph unicode="&#x3c;" horiz-adv-x="1140" d="M86 659l956 -563v277l-555 329l555 326v277l-892 -512z" />
<glyph unicode="=" horiz-adv-x="1372" d="M100 354h1178v234h-1178v-234zM100 815h1178v234h-1178v-234z" />
<glyph unicode="&#x3e;" horiz-adv-x="1191" d="M111 96l893 512l63 135l-956 562v-277l555 -328l-555 -327v-277z" />
<glyph unicode="?" horiz-adv-x="772" d="M92 1470l101 -251q29 53 74.5 72.5t82.5 19.5q35 0 65.5 -35t30.5 -80q0 -86 -39.5 -157.5t-87 -136t-87 -129t-39.5 -136.5t24.5 -153t104.5 -158l159 145q-25 35 -33 68.5t-8 68.5q0 47 20.5 89t51.5 83t67.5 84t67.5 91.5t51.5 104.5t20.5 126q0 86 -28.5 152.5 t-77 112.5t-111 69.5t-129.5 23.5q-61 0 -137 -17.5t-144 -56.5zM127 111l250 -240l239 252l-239 235z" />
<glyph unicode="@" horiz-adv-x="1867" d="M72 575q0 -197 67.5 -359.5t189.5 -278t290.5 -179t371.5 -63.5q104 0 209 19.5t197 51t162.5 72.5t107.5 84l-143 154q-109 -96 -248 -134t-299 -38q-145 0 -266 48t-207 136t-134 211t-48 272q0 156 49 286t138 223.5t211 145.5t267 52q176 0 290 -56.5t180.5 -140.5 t92 -181t25.5 -179q0 -141 -26.5 -233.5t-63.5 -147.5t-75 -77.5t-58 -22.5q-29 0 -41.5 38.5t2.5 102.5l151 696l-194 -65h-4q-51 84 -138.5 118.5t-179.5 34.5q-119 0 -220 -51t-175 -136t-116 -193.5t-42 -223.5q0 -111 30 -205t83 -161.5t125 -106.5t158 -39 q43 0 92 13.5t94 35t79 50t46 59.5l4 -4q-8 -49 5 -86t40 -59.5t60.5 -34t68.5 -11.5q88 0 179 38t166 123t122 219t47 327q0 131 -46 265t-143.5 242.5t-249 177.5t-360.5 69q-238 0 -411.5 -80t-287.5 -207t-169 -288t-55 -323zM674 514q0 57 16.5 131t50 139.5t85 109.5 t120.5 44q68 0 110 -53t42 -137q0 -66 -19.5 -144t-54.5 -146.5t-86 -114.5t-113 -46q-66 0 -108.5 59.5t-42.5 157.5z" />
<glyph unicode="A" horiz-adv-x="1490" d="M-2 0l244 -117l241 525h518l238 -521l250 113l-684 1464l-164 -69zM590 641l151 334l154 -334h-305z" />
<glyph unicode="B" horiz-adv-x="1232" d="M162 -23h465q121 0 219 29t167.5 81t107.5 128t38 170q0 147 -67.5 239.5t-184.5 127.5q66 55 103 123.5t37 168.5q0 66 -24 133.5t-84 123t-165.5 91t-271.5 35.5h-340v-1450zM440 211v383h138q92 0 149 -17.5t90 -45t45 -61.5t12 -69q0 -33 -12 -66.5t-45 -61t-87 -45 t-138 -17.5h-152zM440 825v365h47q57 0 107.5 -8t87.5 -28.5t57.5 -55.5t20.5 -86q0 -86 -59.5 -136.5t-208.5 -50.5h-52z" />
<glyph unicode="C" horiz-adv-x="1533" d="M119 705q0 -160 59.5 -295.5t163.5 -235.5t247.5 -156.5t313.5 -56.5q123 0 263.5 28.5t303.5 114.5l-88 238q-82 -41 -149.5 -66.5t-125.5 -41t-108.5 -21.5t-97.5 -6q-109 0 -200 37t-156.5 102.5t-102 157.5t-36.5 201t36.5 200.5t101 159.5t152.5 105.5t191 37.5 q119 0 229.5 -34.5t231.5 -94.5l114 236q-170 78 -307 107.5t-262 29.5q-152 0 -291 -54.5t-246.5 -152.5t-172 -235.5t-64.5 -304.5z" />
<glyph unicode="D" horiz-adv-x="1626" d="M160 -23h575q215 0 362.5 67t237.5 173.5t130 236.5t40 259q0 119 -36.5 245.5t-129 231t-246 171t-386.5 66.5h-547v-1450zM438 211v979h275q113 0 206 -35t160.5 -97.5t104.5 -150.5t37 -194q0 -123 -40 -216.5t-107.5 -157t-157 -96t-187.5 -32.5h-291z" />
<glyph unicode="E" horiz-adv-x="1138" d="M162 -23h932l-78 234h-576v379h543v233h-543v367h545l105 237h-928v-1450z" />
<glyph unicode="F" horiz-adv-x="1069" d="M164 -23h278v635h504v236h-504v342h504l103 237h-885v-1450z" />
<glyph unicode="G" horiz-adv-x="1611" d="M117 702q0 -162 60.5 -299t168 -237t253.5 -156.5t319 -56.5q123 0 262 35t286 108v668l-274 -125v-389q-59 -27 -123.5 -39t-146.5 -12q-133 0 -229.5 42t-161 112.5t-95 159.5t-30.5 185q0 109 36.5 200t101 157.5t153.5 104.5t194 38q98 0 212 -27.5t265 -107.5 l92 246q-96 43 -171 69.5t-139.5 41t-122.5 19.5t-120 5q-170 0 -315.5 -56.5t-250.5 -154.5t-164.5 -234.5t-59.5 -296.5z" />
<glyph unicode="H" horiz-adv-x="1570" d="M160 -98l278 94v577h697v-577l274 -94v1523h-274v-618h-697v618h-278v-1523z" />
<glyph unicode="I" horiz-adv-x="610" d="M164 -23h278v1522l-278 -104v-1418z" />
<glyph unicode="J" horiz-adv-x="690" d="M10 240l29 -271q43 -4 82 -8t57 -4q88 0 144.5 26.5t115.5 86.5q59 57 82 144t23 202v1079l-279 -104v-1004q0 -92 -23.5 -136t-68.5 -50q-8 0 -44 1t-118 38z" />
<glyph unicode="K" horiz-adv-x="1241" d="M156 -23h278v533l621 -590l186 172l-649 617l579 614l-186 170l-551 -575v555l-278 -78v-1418z" />
<glyph unicode="L" horiz-adv-x="1124" d="M160 -23h960l-102 234h-580v1214h-278v-1448z" />
<glyph unicode="M" horiz-adv-x="1695" d="M156 -104l278 100v864h4l406 -559l407 561h2v-866l279 -100v1646l-209 -151l-479 -648l-477 648l-211 145v-1640z" />
<glyph unicode="N" horiz-adv-x="1675" d="M162 -23h278v977l863 -964l213 -109v1546h-277v-970l-856 958l-221 111v-1549z" />
<glyph unicode="O" horiz-adv-x="1769" d="M104 698q0 -158 60.5 -293t165 -236t247 -158.5t306.5 -57.5t306 57.5t247.5 158.5t166 236t60.5 293q0 156 -60.5 292t-166 236.5t-247.5 159t-306 58.5t-306.5 -58.5t-247 -159t-165 -236.5t-60.5 -292zM389 698q0 106 39 197.5t105.5 159t156.5 105.5t195 38 q104 0 194 -38t158 -105.5t105.5 -159t37.5 -197.5t-37.5 -197t-105.5 -159t-158 -105.5t-194 -37.5t-194.5 37.5t-157 105.5t-105.5 159t-39 197z" />
<glyph unicode="P" horiz-adv-x="1173" d="M160 -27h278v613h162q152 0 252 38t160.5 98t85 136t24.5 154q0 86 -28.5 160.5t-90 132t-156.5 90t-229 32.5h-458v-1454zM438 819v375h166q125 0 180.5 -54.5t55.5 -129.5q0 -39 -13.5 -74t-42 -60.5t-75.5 -41t-115 -15.5h-156z" />
<glyph unicode="Q" horiz-adv-x="1765" d="M104 700q0 -74 15.5 -147.5t44.5 -142t69.5 -129t94.5 -105.5q8 -190 26.5 -373.5t55.5 -357.5l254 -61q-4 31 -10.5 72.5t-13.5 111.5t-14.5 173t-13.5 255q27 -14 61 -23.5t70.5 -14.5t71.5 -7t62 -2q164 0 307 58.5t249.5 160.5t168 239.5t61.5 297.5q0 158 -59.5 294 t-164 235t-247.5 156.5t-309 57.5t-308.5 -57.5t-247 -157.5t-164 -237.5t-59.5 -295.5zM389 702q0 104 39 195.5t105.5 159t156.5 106.5t195 39q104 0 194 -38t157 -105.5t105.5 -159t38.5 -197.5q0 -104 -40 -196t-108.5 -159.5t-159.5 -106.5t-193 -39t-191.5 39 t-156 107.5t-104.5 159.5t-38 195z" />
<glyph unicode="R" horiz-adv-x="1296" d="M162 -27h276v627h185l469 -692l225 141l-438 625q227 102 227 358q0 76 -27.5 147.5t-89 127t-161 88t-242.5 32.5h-424v-1454zM438 834v358h125q135 0 196.5 -49t61.5 -127q0 -86 -62.5 -134t-191.5 -48h-129z" />
<glyph unicode="S" horiz-adv-x="1146" d="M100 1022q0 -125 49.5 -196.5t123 -115.5t160.5 -69t161 -54.5t123 -74.5t49 -129q0 -33 -12.5 -65.5t-40 -59.5t-71.5 -43t-105 -16q-39 0 -81 15t-84 38.5t-85 52.5t-82 55l-103 -241q125 -80 239 -123t230 -43q100 0 188.5 30.5t154 89t103.5 143.5t38 194 q0 125 -49.5 199.5t-123 120.5t-160.5 71.5t-161 53.5t-123 65.5t-49 105.5q0 74 53.5 123t132.5 49q72 0 137.5 -31.5t157.5 -81.5l107 230q-209 129 -412 129q-96 0 -181 -33t-147.5 -90t-99.5 -134t-37 -165z" />
<glyph unicode="T" horiz-adv-x="1337" d="M-8 1190h524v-1217h279v1217h462l86 237h-1265z" />
<glyph unicode="U" horiz-adv-x="1542" d="M131 612q0 -166 49 -290.5t133 -207.5t197 -125t242 -42q96 0 195.5 32.5t178.5 94.5v-80l271 -84v1556l-275 -69v-768q0 -119 -32.5 -202t-85 -135t-119 -75.5t-133.5 -23.5q-70 0 -132.5 24.5t-109.5 76.5t-74.5 132t-27.5 188v783l-277 69v-854z" />
<glyph unicode="V" horiz-adv-x="1339" d="M0 1391l565 -1371l154 -124l624 1495l-249 106l-420 -1012l-422 1012z" />
<glyph unicode="W" horiz-adv-x="2193" d="M0 1389l539 -1375l155 -123l400 1031l350 -904l151 -143l600 1518l-260 96l-381 -983l-403 1007l-156 -108l-354 -916l-387 1004z" />
<glyph unicode="X" horiz-adv-x="1542" d="M2 61l223 -155l547 616l557 -620l211 157l-586 662l549 625l-215 155l-516 -575l-514 573l-221 -156l555 -622z" />
<glyph unicode="Y" horiz-adv-x="1343" d="M-16 1378l546 -651v-752h279v752l545 653l-236 115l-448 -526l-449 530z" />
<glyph unicode="Z" horiz-adv-x="1472" d="M25 -27h1343l80 234h-963l877 1067l41 153h-1272l-92 -237h919l-872 -1049z" />
<glyph unicode="[" horiz-adv-x="800" d="M143 -451h635l-78 242h-290v1395h290l78 241h-635v-1878z" />
<glyph unicode="\" horiz-adv-x="751" d="M18 1376l469 -1489l240 80l-463 1485z" />
<glyph unicode="]" horiz-adv-x="800" d="M20 -467h635v1878h-635l78 -240h289v-1396h-295z" />
<glyph unicode="^" horiz-adv-x="1523" d="M227 864l187 -155l348 415l342 -413l192 153l-534 639z" />
<glyph unicode="_" horiz-adv-x="1126" d="M-12 -193v-245h1157v245h-1157z" />
<glyph unicode="`" horiz-adv-x="780" d="M139 1493l328 -463l127 92l-289 469z" />
<glyph unicode="a" horiz-adv-x="995" d="M80 289q0 -59 25.5 -116.5t69.5 -105t102.5 -76t125.5 -28.5q33 0 72 2t77 6t70.5 9.5t51.5 9.5l196 -66v785q0 90 -33.5 148t-85 92t-109.5 47.5t-110 13.5q-98 0 -209.5 -21.5t-226.5 -91.5l109 -215q72 53 150.5 76.5t146.5 23.5q47 0 74.5 -24.5t27.5 -61.5v-43 q-88 0 -181 -12t-169 -52t-125 -111.5t-49 -188.5zM352 289q0 45 21.5 73.5t57.5 44t81 20.5t92 5v-221q-10 -4 -30.5 -8t-44 -7t-49 -5.5t-46.5 -2.5q-35 0 -58.5 30t-23.5 71z" />
<glyph unicode="b" horiz-adv-x="1155" d="M121 41q113 -49 202 -70.5t189 -21.5q129 0 234.5 39t179 111.5t114.5 174t41 226.5q0 109 -35.5 200t-98 156.5t-149.5 102t-192 36.5q-74 0 -123 -9t-96 -30v529l-266 -78v-1366zM387 209v477q57 45 103.5 60.5t103.5 15.5q92 0 152.5 -74t60.5 -192 q0 -66 -21.5 -122.5t-58.5 -97t-89 -64.5t-114 -24q-33 0 -66.5 5.5t-70.5 15.5z" />
<glyph unicode="c" horiz-adv-x="1054" d="M76 465q0 -113 40 -207t110.5 -161.5t170 -105.5t217.5 -38q37 0 85.5 6t102.5 19.5t110.5 32t109.5 42.5l-107 215q-113 -43 -177 -59t-117 -16q-125 0 -198 73.5t-73 202.5t72 208t188 79q25 0 50.5 -3t59.5 -12.5t77 -24t102 -38.5l102 215q-106 47 -213.5 76.5 t-179.5 29.5q-115 0 -213 -38.5t-168.5 -109.5t-110.5 -169t-40 -217z" />
<glyph unicode="d" horiz-adv-x="1181" d="M84 475q0 -111 40 -206t110.5 -165.5t165 -110.5t204.5 -40q72 0 128 15.5t124 31.5l184 -72v1561l-268 -78v-434q-65 24 -162 24h-8q-113 0 -208 -38.5t-163.5 -108.5t-107.5 -166t-39 -213zM356 481q0 61 18.5 111.5t52.5 87.5t80 57.5t101 20.5q43 0 81 -7.5t83 -33.5 v-475q-39 -23 -71.5 -38.5t-77.5 -15.5q-59 0 -107.5 22.5t-84.5 62.5t-55.5 93.5t-19.5 114.5z" />
<glyph unicode="e" horiz-adv-x="1064" d="M61 485q0 -117 38 -214t106.5 -167.5t166 -110.5t216.5 -40q117 0 220 44t187 112l-116 204q-68 -59 -131.5 -89.5t-139.5 -30.5q-57 0 -106 16t-85 47q-35 31 -55 72q-18 37 -18 81v9h668q0 156 -41 266.5t-106.5 181t-146.5 102t-161 31.5q-111 0 -203 -37.5 t-156.5 -105.5t-100.5 -163t-36 -208zM360 629q20 61 67.5 101t115.5 40t109.5 -43t56.5 -98h-349z" />
<glyph unicode="f" horiz-adv-x="651" d="M45 723h127v-750h268v750h156l53 223h-209v33q0 98 16.5 164.5t65.5 66.5q33 0 68 -20.5t65 -54.5l95 235q-53 31 -117 52.5t-111 21.5q-168 0 -259 -94.5t-91 -302.5v-101h-76z" />
<glyph unicode="g" horiz-adv-x="1009" d="M43 -152q0 -61 28.5 -114t80 -92t122 -60.5t154.5 -21.5q106 0 206.5 30.5t177.5 80.5t123 118t46 141q0 86 -30.5 138.5t-78 81t-103.5 39t-107.5 14.5t-91.5 7t-52 15q0 10 18.5 15.5t41.5 11.5q59 16 118.5 46t106.5 76t75.5 109.5t28.5 149.5q0 94 -38 164.5t-96 118 t-128.5 70t-138.5 22.5q-111 0 -188.5 -34t-127 -88.5t-72 -122t-22.5 -134.5q0 -37 8.5 -77t28 -78t49 -70.5t72.5 -53.5q-53 -18 -83 -42.5t-30 -76.5q0 -43 33 -71.5t62 -40.5l-23 -21q-82 -18 -126 -91t-44 -159zM307 -145q0 35 24.5 59.5t59.5 40.5t73 23.5t66 7.5 q80 0 133.5 -11.5t53.5 -52.5q0 -25 -25.5 -49.5t-65.5 -43.5t-91.5 -32.5t-100.5 -13.5q-66 0 -96.5 20.5t-30.5 51.5zM360 633q0 63 40 106t100 43q59 0 101 -44t42 -107q0 -66 -41 -111t-100 -45q-61 0 -101.5 46t-40.5 112z" />
<glyph unicode="h" horiz-adv-x="1093" d="M121 -27h266v734q45 27 84 41t98 14q80 0 119 -59.5t39 -163.5v-566h266v602q0 104 -30.5 184.5t-85 133.5t-129 79.5t-162.5 26.5q-59 0 -108.5 -12t-90.5 -26v538l-266 -110v-1416z" />
<glyph unicode="i" horiz-adv-x="466" d="M-8 1300l244 -249l243 249l-243 246zM92 -27h268v1082l-268 -111v-971z" />
<glyph unicode="j" horiz-adv-x="565" d="M-70 -233l68 -234q17 -1 34 -1q189 0 278 106q96 116 96 342v1083l-265 -115v-968q0 -70 -7 -115t-28.5 -68.5t-63.5 -30.5q-20 -3 -47 -3q-29 0 -65 4zM49 1303l240 -234l231 234l-233 233z" />
<glyph unicode="k" horiz-adv-x="1044" d="M121 -27h266v359l473 -391l176 176l-473 385l391 325l-151 199l-416 -352v792l-266 -71v-1422z" />
<glyph unicode="l" horiz-adv-x="655" d="M143 254q0 -74 32 -129t81 -93t106.5 -56.5t108.5 -18.5q39 0 84 9t70 30l22 262q-37 -27 -78 -47.5t-75 -20.5q-29 0 -55.5 17.5t-26.5 83.5v1184l-269 -84v-1137z" />
<glyph unicode="m" horiz-adv-x="1638" d="M119 -27h268v748q33 16 71 29.5t99 13.5q70 0 103.5 -52.5t33.5 -172.5v-566h269v619q0 31 -5.5 63.5t-7.5 40.5q39 31 82 47.5t103 16.5q80 0 108.5 -62.5t28.5 -160.5v-564h266v617q0 184 -91 296.5t-282 112.5q-111 0 -186.5 -26.5t-147.5 -61.5q-35 33 -97 60.5 t-177 27.5q-82 0 -144.5 -17.5t-109.5 -35.5l-184 101v-1074z" />
<glyph unicode="n" horiz-adv-x="1112" d="M121 -27h266v756q70 35 195 35q74 0 118.5 -57.5t44.5 -167.5v-566h267v600q0 217 -114 322.5t-302 105.5q-84 0 -157.5 -14t-135.5 -37v-4l-182 98v-1071z" />
<glyph unicode="o" horiz-adv-x="1193" d="M66 471q0 -111 40.5 -207t112.5 -165.5t168 -109.5t209 -40t211 40t169 109.5t111.5 165.5t40.5 207q0 113 -40.5 208t-111.5 165.5t-169 110.5t-211 40t-209 -40t-168 -110.5t-112.5 -165.5t-40.5 -208zM340 471q0 61 19.5 113.5t54.5 91.5t82 60.5t100 21.5 q55 0 101 -22.5t81 -60.5t54.5 -90.5t19.5 -113.5t-19.5 -113.5t-54.5 -89.5t-81 -58.5t-101 -21.5q-53 0 -100 21.5t-82 58.5t-54.5 89.5t-19.5 113.5z" />
<glyph unicode="p" horiz-adv-x="1130" d="M111 -473h266v442q41 -10 83 -15t85 -5q109 0 203 41t163.5 111.5t109.5 167t40 206.5q0 113 -39 208t-106.5 165t-162 108.5t-204.5 38.5q-66 0 -134.5 -10t-121.5 -29l-182 93v-1522zM377 221v510q47 14 74.5 18.5t62.5 4.5q59 0 108.5 -21.5t85 -59.5t56 -91.5 t20.5 -114.5q0 -123 -74.5 -198.5t-197.5 -75.5q-37 0 -66.5 6t-68.5 22z" />
<glyph unicode="q" horiz-adv-x="1155" d="M74 457q0 -111 36.5 -204t102.5 -160.5t158 -104.5t200 -37q102 0 195 24v-446h268v1477l-174 -58q-70 29 -136.5 39t-137.5 10q-109 0 -203 -41t-162.5 -112.5t-107.5 -171t-39 -215.5zM346 451q0 66 19.5 121t54.5 96t83 64.5t103 23.5q43 0 78 -6.5t82 -28.5v-500 q-49 -20 -88 -26.5t-86 -6.5q-111 0 -178.5 71t-67.5 192z" />
<glyph unicode="r" horiz-adv-x="747" d="M106 -29h269v695q29 55 71.5 73.5t83.5 18.5q39 0 80 -18.5t76 -53.5l131 229q-51 45 -121.5 68t-156.5 23q-74 0 -144.5 -24t-113.5 -56h-9l-166 102v-1057z" />
<glyph unicode="s" horiz-adv-x="983" d="M66 74q205 -123 409 -123q86 0 165 21.5t139.5 64.5t97 105.5t36.5 146.5q0 92 -41 148.5t-103 90t-135 50t-135.5 30t-103.5 29.5t-41 47q0 33 44 55.5t98 22.5q66 0 132 -16.5t136 -67.5l117 209q-84 59 -184.5 84.5t-192.5 25.5q-84 0 -161 -25.5t-135 -69.5 t-92 -102.5t-34 -121.5q0 -90 41 -145.5t103.5 -89t135 -51t135 -31t103.5 -29t41 -41.5q0 -49 -47 -76t-107 -27q-76 0 -149.5 24t-171.5 71z" />
<glyph unicode="t" horiz-adv-x="749" d="M25 752h163v-535q0 -68 26 -118t65.5 -81.5t91 -47t102.5 -15.5q25 0 60.5 7t75.5 19.5t80 29t73 32.5l-103 209q-49 -27 -85.5 -42t-77.5 -15q-31 0 -36 29.5t-5 99.5v428h241v221h-241v350l-267 -149v-201h-163v-221z" />
<glyph unicode="u" horiz-adv-x="1118" d="M94 371q0 -117 44 -197t110.5 -130t144.5 -71.5t148 -21.5q72 0 148.5 13t131.5 34l187 -125v1100h-271v-742q-37 -23 -80 -29.5t-108 -6.5q-33 0 -66.5 11t-60.5 32.5t-43.5 55.5t-16.5 79v600h-268v-602z" />
<glyph unicode="v" horiz-adv-x="1017" d="M-6 948l424 -958l162 -92l452 1052l-246 94l-268 -638l-280 638z" />
<glyph unicode="w" horiz-adv-x="1556" d="M-6 942l395 -938l160 -86l227 576l191 -486l153 -88l447 1022l-234 111l-260 -615l-237 637l-152 -117l-203 -520l-252 615z" />
<glyph unicode="x" horiz-adv-x="1148" d="M0 891l397 -406l-395 -419l195 -160l376 401l371 -399l209 153l-401 424l401 408l-207 156l-373 -383l-378 383z" />
<glyph unicode="y" horiz-adv-x="1021" d="M-63 -178l102 -211q37 6 102.5 21.5t140 58.5t152.5 120.5t141 204.5l449 910l-225 127l-275 -559l-293 559l-225 -127l383 -719q-6 -14 -24.5 -50t-38.5 -71q-37 -72 -82 -118t-94.5 -74.5t-102.5 -45t-110 -26.5z" />
<glyph unicode="z" horiz-adv-x="989" d="M25 -27h893l67 232h-541l474 624l40 144h-862l-71 -232h510l-478 -622z" />
<glyph unicode="{" horiz-adv-x="833" d="M102 328q51 -2 86 -15.5t56.5 -45t32 -84t10.5 -132.5v-190q0 -102 27.5 -170t84 -108t140.5 -55t194 -15v254q-47 0 -79.5 6t-53 23.5t-29 47t-8.5 78.5v139q0 164 -38 261.5t-107 138.5q70 41 107.5 140t37.5 265v138q0 49 8.5 78.5t29 46t53 22.5t79.5 6v256 q-100 0 -182 -11t-140.5 -50t-91 -112t-32.5 -196l-2 -188q-2 -141 -42 -199.5t-141 -62.5v-266z" />
<glyph unicode="|" horiz-adv-x="618" d="M172 -506l266 113v1915l-266 -111v-1917z" />
<glyph unicode="}" horiz-adv-x="833" d="M100 -231v-254q113 -4 197 11t140.5 60t85 122t28.5 196v184q0 131 40 185.5t138 56.5v266q-98 2 -138 57.5t-40 186.5v184q0 119 -28.5 195.5t-85 120.5t-140.5 59.5t-197 11.5v-252q94 0 132 -25.5t38 -109.5v-186q0 -299 154 -373q-78 -39 -116 -130t-38 -247v-184 q0 -84 -37.5 -109.5t-132.5 -25.5z" />
<glyph unicode="~" horiz-adv-x="1476" d="M139 438q70 66 126.5 108t101.5 66.5t76.5 33.5t52.5 9q37 0 90 -23.5t115.5 -52t131 -52t136.5 -23.5q78 0 157.5 34.5t192.5 116.5v301q-135 -123 -221 -168t-133 -45q-31 0 -84.5 24t-117 52.5t-134 52t-135.5 23.5q-150 0 -355 -154v-303z" />
<glyph unicode="&#xa1;" horiz-adv-x="593" d="M51 807l240 -238l248 252l-242 238zM150 -543h296l-16 1092h-264z" />
<glyph unicode="&#xa2;" horiz-adv-x="1060" d="M76 465q0 -113 40 -207t110.5 -161.5t170 -105.5t217.5 -38q37 0 85.5 6t102.5 19.5t110.5 32t109.5 42.5l-107 215q-113 -43 -177 -59t-117 -16q-125 0 -198 73.5t-73 202.5t72 208t188 79q25 0 50.5 -3t59.5 -12.5t77 -24t102 -38.5l102 215q-106 47 -213.5 76.5 t-179.5 29.5q-115 0 -213 -38.5t-168.5 -109.5t-110.5 -169t-40 -217zM502 -487l266 112v1913l-266 -111v-1914z" />
<glyph unicode="&#xa3;" horiz-adv-x="1198" d="M74 -86q25 8 61.5 22.5t78.5 27.5t84 22.5t77 9.5q66 0 137.5 -6t133 -14.5t105.5 -14.5t54 -6q37 0 83 5t93 14.5t91 24.5t77 38l-70 239q-61 -47 -130.5 -64t-137.5 -17q-53 6 -96 12t-81 10t-76 6t-79 2h-49l88 338h250v240h-178q25 88 48.5 162.5t53 129t68.5 85 t92 30.5t82 -21.5t55 -39.5l45 254q-51 27 -109.5 36t-105.5 9q-92 0 -164.5 -44t-132 -127t-110 -203t-99.5 -271h-204v-240h137z" />
<glyph unicode="&#xa4;" horiz-adv-x="1337" d="M111 328l178 -176l133 131q47 -29 107.5 -46.5t138.5 -17.5q139 0 247 64l136 -131l178 176l-133 129q33 51 53 113.5t20 136.5q0 139 -73 249l133 129l-178 179l-138 -136q-53 31 -115 49.5t-130 18.5q-70 0 -130.5 -18.5t-115.5 -49.5l-133 136l-178 -179l129 -129 q-35 -55 -52.5 -115.5t-17.5 -133.5q0 -143 70 -250zM436 707q0 51 18.5 96t49.5 77.5t73 52t91 19.5t91 -19.5t73.5 -52t50 -77.5t18.5 -96t-18.5 -95.5t-50 -78t-73.5 -53t-91 -19.5t-91 19.5t-73 53t-49.5 77.5t-18.5 96z" />
<glyph unicode="&#xa5;" horiz-adv-x="1339" d="M-6 1485l405 -678h-288v-199h409v-67h-409v-211h409v-357h297v357h408v207h-408v73h408v197h-289l401 678h-329l-336 -586l-342 586h-336z" />
<glyph unicode="&#xa6;" horiz-adv-x="634" d="M184 -440h269v913h-269v-913zM184 666h269v788h-269v-788z" />
<glyph unicode="&#xa7;" horiz-adv-x="950" d="M57 567q0 -80 38 -147.5t93.5 -127t122 -111.5t121.5 -101t93 -97.5t38 -97.5q0 -41 -25.5 -67.5t-66.5 -26.5q-84 0 -100 182l-248 -153q35 -129 128 -196.5t216 -67.5q162 0 260 84t98 223q0 68 -16 124t-57 122q80 96 111.5 185t31.5 167t-37 146.5t-93 128 t-121.5 113.5t-122 104.5t-93.5 97.5t-37 96q0 37 26.5 62.5t61.5 25.5q41 0 67.5 -45t35.5 -127l254 123q-33 125 -124 204.5t-229 79.5q-80 0 -145.5 -23.5t-113.5 -66.5t-73.5 -103t-25.5 -134q0 -59 16.5 -109.5t59.5 -120.5q-78 -86 -111 -177t-33 -169zM332 569 q0 41 10 84t39 84q23 -20 63.5 -51t79.5 -69.5t68 -80.5t29 -83q0 -37 -10.5 -83t-39.5 -83q-43 35 -86 66.5t-76.5 64.5t-55 69.5t-21.5 81.5z" />
<glyph unicode="&#xa8;" horiz-adv-x="948" d="M37 1237l211 -209l213 209l-213 215zM487 1237l218 -211l210 211l-210 213z" />
<glyph unicode="&#xa9;" horiz-adv-x="1742" d="M68 731q0 -164 62.5 -306t172 -249.5t256 -169t311.5 -61.5q166 0 311.5 61.5t255 169t172 249.5t62.5 306t-62.5 307.5t-172 251t-255 170t-311.5 62.5t-312 -62.5t-255.5 -170t-172 -251t-62.5 -307.5zM334 731q0 115 42 215.5t115.5 175t170.5 117.5t208 43t208.5 -43 t170 -117.5t114.5 -175t42 -215.5q0 -113 -42 -212t-114.5 -174t-170 -118t-208.5 -43t-208 43t-170.5 118t-115.5 174t-42 212zM446 737q0 -100 32 -185t88.5 -147.5t135 -98.5t170.5 -36q76 0 141.5 27t117 75t87 111.5t52.5 137.5l-236 69q-20 -92 -58 -142t-110 -50 t-115.5 69.5t-43.5 184.5q0 100 48 156.5t119 56.5q104 0 156 -166l248 63q-55 174 -160.5 249t-240.5 75q-100 0 -180.5 -36t-135.5 -97.5t-85 -143.5t-30 -172z" />
<glyph unicode="&#xaa;" horiz-adv-x="724" d="M47 979q0 -45 19.5 -83t53.5 -66.5t80 -45t99 -16.5q39 0 77 14.5t79 32.5l174 -113v531q0 104 -64.5 170.5t-199.5 66.5q-78 0 -152 -22.5t-162 -91.5l76 -144q37 18 64.5 35t53 27t51.5 16t54 6q23 0 34 -18t11 -37v-24q-166 -10 -257 -72t-91 -166zM258 979 q0 37 37.5 59.5t105.5 22.5v-92q-25 -20 -44 -27.5t-42 -7.5q-57 0 -57 45z" />
<glyph unicode="&#xab;" horiz-adv-x="1333" d="M43 473l426 -496h332l-424 496l424 500h-332zM537 473l424 -496h331l-422 496l422 500h-331z" />
<glyph unicode="&#xac;" horiz-adv-x="1452" d="M135 813h918v-491l260 88v641h-1178v-238z" />
<glyph unicode="&#xad;" d="M80 395h635l51 242h-635z" />
<glyph unicode="&#xae;" horiz-adv-x="1746" d="M70 731q0 -164 63.5 -307t172 -250.5t256 -169t312.5 -61.5q166 0 311.5 61.5t255 169t172 250.5t62.5 307q0 162 -62.5 306.5t-172 251t-255 169t-311.5 62.5t-313 -62.5t-255.5 -169t-172 -251t-63.5 -306.5zM338 731q0 113 42 213t114.5 175t170.5 118t209 43 t208.5 -43t170 -118t114.5 -175t42 -213q0 -115 -42 -214t-114.5 -174t-170 -118t-208.5 -43t-209 43t-170.5 118t-114.5 174t-42 214zM522 297h260v317h31l215 -350l242 119l-193 281q68 29 104 87t36 123q0 131 -86.5 214t-237.5 83h-367zM782 829v123l47 -4 q72 -4 94.5 -14t22.5 -41q0 -35 -21.5 -49.5t-82.5 -14.5h-60z" />
<glyph unicode="&#xaf;" horiz-adv-x="817" d="M66 1174h686v247h-686v-247z" />
<glyph unicode="&#xb0;" horiz-adv-x="958" d="M127 1128q0 -72 27.5 -134t74.5 -108t112 -74t138 -28q74 0 138.5 28t113.5 74t77 108.5t28 133.5q0 72 -28 134.5t-77 108.5t-113.5 72.5t-138.5 26.5t-138.5 -26.5t-111.5 -72.5t-74.5 -108.5t-27.5 -134.5zM365 1130q0 55 32.5 94.5t81.5 39.5t85 -39t36 -95 q0 -55 -36 -94t-85 -39t-81.5 39t-32.5 94z" />
<glyph unicode="&#xb1;" horiz-adv-x="1462" d="M143 -45h1178v233h-1178v-233zM143 670h459l2 -420h260l-2 420h459v235h-459v461h-260v-461h-459v-235z" />
<glyph unicode="&#xb2;" horiz-adv-x="864" d="M35 676h772v211h-281q61 68 102.5 123t64 98t31.5 74.5t9 56.5q0 57 -24.5 107.5t-68.5 87t-103.5 58t-128.5 21.5q-76 0 -142.5 -17t-136.5 -71l64 -233q27 29 50 50.5t46.5 34.5t50.5 20.5t63 7.5q31 0 51.5 -26t20.5 -54q0 -29 -32.5 -84.5t-91 -128t-139.5 -158.5 t-177 -178z" />
<glyph unicode="&#xb3;" horiz-adv-x="792" d="M86 723q61 -29 133 -46.5t148 -17.5q70 0 130 20.5t105 56.5t69.5 86t24.5 110q0 127 -96 170v4q43 20 64.5 60t21.5 91q0 55 -23.5 101.5t-65.5 79t-99.5 51t-126.5 18.5q-84 0 -148.5 -20.5t-128.5 -67.5l51 -202q39 37 66 56t49.5 29.5t47 12.5t59.5 2q29 0 47 -22.5 t18 -57.5q0 -29 -51 -45t-143 -16v-140q33 0 68.5 -3t65 -13t49 -27.5t19.5 -44.5q0 -37 -26.5 -58.5t-69.5 -21.5h-57q-23 0 -43.5 5.5t-43 15.5t-55.5 31z" />
<glyph unicode="&#xb4;" horiz-adv-x="751" d="M252 1106l137 -86l307 457l-155 114z" />
<glyph unicode="&#xb5;" horiz-adv-x="1288" d="M205 -362h268v356q37 -18 76 -27.5t88 -9.5q94 0 166 39v-21h268v996h-268v-533q0 -70 -12.5 -116t-35 -74.5t-52 -40.5t-64.5 -12q-92 0 -129 72.5t-37 197.5v506h-268v-1333z" />
<glyph unicode="&#xb6;" horiz-adv-x="1476" d="M98 1061q0 -94 30 -175t85 -142.5t133 -100.5t174 -47v-909l293 -95v1655h82v-1622h293v1622h125l82 281h-760q-121 0 -220.5 -33t-170 -94.5t-108.5 -147.5t-38 -192z" />
<glyph unicode="&#xb7;" horiz-adv-x="735" d="M176 711q0 -37 15.5 -70t41 -57.5t60.5 -38t74 -13.5q80 0 135 51.5t55 127.5t-55 127t-135 51q-39 0 -74 -13.5t-60.5 -38t-41 -57t-15.5 -69.5z" />
<glyph unicode="&#xb8;" horiz-adv-x="923" d="M227 -475q29 -4 77 -14.5t75 -10.5q143 -2 226 50.5t83 160.5q0 68 -29.5 113t-78.5 59l24 117h-196l-64 -236q53 4 96 -4t43 -32q0 -37 -57 -39q-29 -2 -68 0t-92 14z" />
<glyph unicode="&#xb9;" horiz-adv-x="671" d="M274 662h119v749h-119v-749z" />
<glyph unicode="&#xba;" horiz-adv-x="868" d="M51 1120q0 -76 29 -139t80 -109.5t120.5 -72t149.5 -25.5q86 0 155.5 24.5t120 69.5t78 109.5t27.5 142.5q0 72 -29.5 135.5t-81 109.5t-121 72.5t-149.5 26.5q-84 0 -152.5 -25.5t-120 -71.5t-79 -108.5t-27.5 -138.5zM299 1120q0 66 37 109t94 43q59 0 96 -44.5 t37 -107.5q0 -66 -37 -108.5t-96 -42.5t-95 41t-36 110z" />
<glyph unicode="&#xbb;" horiz-adv-x="1333" d="M41 -23h332l426 498l-426 498h-332l422 -498zM532 -23h334l424 498l-424 498h-334l424 -498z" />
<glyph unicode="&#xbc;" horiz-adv-x="1572" d="M33 -80h280l1119 1526h-279zM211 592h238v835h-238v-835zM774 188h387v-215h217v215h109v189h-109v436h-170l-434 -498v-127zM1057 377l110 129v-129h-110z" />
<glyph unicode="&#xbd;" horiz-adv-x="1744" d="M61 -78h279l1096 1508h-277zM242 610h256v817h-256v-817zM903 -27h748v211h-291q90 104 153.5 188.5t63.5 166.5q0 57 -23.5 108t-65.5 89t-99.5 59.5t-124.5 21.5q-86 0 -161 -33.5t-153 -93.5l111 -196q51 51 98 80.5t86 29.5q33 0 57.5 -20.5t24.5 -48.5 q0 -35 -23.5 -78t-73.5 -107.5t-131 -156t-196 -220.5z" />
<glyph unicode="&#xbe;" horiz-adv-x="1599" d="M47 664q61 -29 132 -46.5t145 -17.5q70 0 130 20.5t105 56.5t69.5 86t24.5 109q0 66 -23.5 110t-70.5 65v4q41 18 62.5 57t21.5 90q0 111 -87 180.5t-226 69.5q-84 0 -149.5 -20.5t-129.5 -67.5l55 -193q61 39 106.5 57.5t100.5 18.5q33 0 54.5 -18.5t21.5 -44.5 q0 -47 -51 -66.5t-141 -19.5v-101q33 0 68.5 -3t65 -15t49 -36t19.5 -67q0 -35 -23.5 -55t-62.5 -20q-55 0 -107 10t-108 37zM66 -78h280l1118 1526h-278zM805 231h385v-258h221v258h109v170h-109v412h-166l-440 -457v-125zM1073 395l127 127v-127h-127z" />
<glyph unicode="&#xbf;" horiz-adv-x="735" d="M39 -264q0 -86 28.5 -152.5t77 -112.5t109.5 -70t129 -24q63 0 138 17.5t145 56.5l-101 252q-29 -53 -75 -72.5t-82 -19.5q-37 0 -67 35t-30 80q0 86 40 157.5t87 136t87 129t40 136.5t-25.5 152.5t-103.5 158.5l-160 -145q23 -35 32 -69t9 -69q0 -47 -20.5 -89t-51 -83 t-67.5 -84t-67.5 -91t-51 -105.5t-20.5 -124.5zM139 799l240 -236l250 248l-248 240z" />
<glyph unicode="&#xc0;" horiz-adv-x="1486" d="M-2 0l244 -117l241 525h518l238 -521l250 113l-684 1464l-164 -69zM481 1939l328 -462l127 92l-289 469zM590 641l151 334l154 -334h-305z" />
<glyph unicode="&#xc1;" horiz-adv-x="1482" d="M-2 0l244 -117l241 525h518l238 -521l250 113l-684 1464l-164 -69zM590 641l151 334l154 -334h-305zM594 1552l137 -86l307 457l-155 115z" />
<glyph unicode="&#xc2;" horiz-adv-x="1486" d="M-2 0l244 -117l241 525h518l238 -521l250 113l-684 1464l-164 -69zM315 1499h260l154 164l148 -164h264l-301 465h-222zM590 641l151 334l154 -334h-305z" />
<glyph unicode="&#xc3;" horiz-adv-x="1482" d="M-2 0l244 -117l241 525h518l238 -521l250 113l-684 1464l-164 -69zM342 1579h221q-23 35 -11.5 63.5t23.5 28.5q33 0 73 -15.5t85 -31.5q43 -16 86 -30.5t82 -14.5q113 0 180 72q18 25 30.5 43t21 43.5t12.5 65.5t4 108h-225q8 -37 3 -65.5t-16 -28.5q-29 0 -59.5 14 t-65.5 31q-47 20 -96 34.5t-98 14.5q-133 0 -191.5 -86t-58.5 -246zM590 641l151 334l154 -334h-305z" />
<glyph unicode="&#xc4;" horiz-adv-x="1488" d="M-2 0l244 -117l241 525h518l238 -521l250 113l-684 1464l-164 -69zM305 1683l211 -208l213 208l-213 215zM590 641l151 334l154 -334h-305zM756 1683l215 -210l211 210l-211 213z" />
<glyph unicode="&#xc5;" horiz-adv-x="1482" d="M-2 0l244 -117l241 525h518l238 -521l250 113l-684 1464l-164 -69zM473 1741q0 -57 24.5 -103.5t63.5 -78t83 -49t85 -17.5q53 0 99 19.5t81 53t54.5 79t19.5 96.5t-19.5 95t-54.5 77t-81 52.5t-99 19.5t-99 -19.5t-81 -52.5t-55.5 -77t-20.5 -95zM590 641l151 334 l154 -334h-305zM639 1735q0 41 26.5 67.5t65.5 26.5q41 0 67.5 -26.5t26.5 -67.5q0 -37 -26.5 -63.5t-67.5 -26.5q-39 0 -65.5 26.5t-26.5 63.5z" />
<glyph unicode="&#xc6;" horiz-adv-x="1861" d="M-80 -27h311l353 566h282v-566h899l-77 234h-553v383h534v235h-534v369h540l72 238h-918zM717 764l143 246h4v-246h-147z" />
<glyph unicode="&#xc7;" horiz-adv-x="1533" d="M119 705q0 -160 59.5 -295.5t163.5 -235.5t247.5 -156.5t313.5 -56.5q123 0 263.5 28.5t303.5 114.5l-88 238q-82 -41 -149.5 -66.5t-125.5 -41t-108.5 -21.5t-97.5 -6q-109 0 -200 37t-156.5 102.5t-102 157.5t-36.5 201t36.5 200.5t101 159.5t152.5 105.5t191 37.5 q119 0 229.5 -34.5t231.5 -94.5l114 236q-170 78 -307 107.5t-262 29.5q-152 0 -291 -54.5t-246.5 -152.5t-172 -235.5t-64.5 -304.5zM637 -440q29 -4 77 -14.5t75 -10.5q143 -2 226 50.5t83 160.5q0 68 -29.5 113t-78.5 59l24 117h-196l-64 -236q53 4 96 -4t43 -32 q0 -37 -57 -39q-29 -2 -68 0t-92 14z" />
<glyph unicode="&#xc8;" horiz-adv-x="1159" d="M162 -23h932l-78 234h-576v379h543v233h-543v367h545l105 237h-928v-1450zM301 1939l328 -462l127 92l-289 469z" />
<glyph unicode="&#xc9;" horiz-adv-x="1150" d="M162 -23h932l-78 234h-576v379h543v233h-543v367h545l105 237h-928v-1450zM414 1552l137 -86l307 457l-156 115z" />
<glyph unicode="&#xca;" horiz-adv-x="1165" d="M162 -23h932l-78 234h-576v379h543v233h-543v367h545l105 237h-928v-1450zM168 1499h262l152 164l149 -164h262l-299 465h-221z" />
<glyph unicode="&#xcb;" horiz-adv-x="1171" d="M162 -23h932l-78 234h-576v379h543v233h-543v367h545l105 237h-928v-1450zM166 1683l211 -208l213 208l-213 215zM616 1683l215 -210l211 210l-211 213z" />
<glyph unicode="&#xcc;" horiz-adv-x="608" d="M-37 1939l328 -462l129 92l-291 469zM164 -23h278v1522l-278 -104v-1418z" />
<glyph unicode="&#xcd;" horiz-adv-x="604" d="M125 1552l137 -86l307 457l-155 115zM164 -23h278v1522l-278 -104v-1418z" />
<glyph unicode="&#xce;" horiz-adv-x="608" d="M-104 1532h262l153 164l148 -164h264l-301 467h-221zM164 -23h278v1522l-278 -104v-1418z" />
<glyph unicode="&#xcf;" horiz-adv-x="604" d="M-141 1700l211 -209l213 209l-213 215zM164 -23h278v1522l-278 -104v-1418zM309 1700l217 -211l211 211l-211 215z" />
<glyph unicode="&#xd0;" horiz-adv-x="1482" d="M-133 588h196v-615h525q219 0 368.5 68t241.5 175.5t133 239.5t41 261q0 117 -37 242.5t-129 230t-246.5 172.5t-388.5 68h-508v-609h-196v-233zM340 207v381h385v233h-385v373h235q113 0 207.5 -35t162 -98.5t105 -152.5t37.5 -195q0 -123 -40.5 -217.5t-110.5 -159 t-162 -97t-192 -32.5h-242z" />
<glyph unicode="&#xd1;" horiz-adv-x="1667" d="M162 -23h278v977l863 -964l213 -109v1546h-277v-970l-856 958l-221 111v-1549zM449 1579h221q-23 35 -11.5 63.5t23.5 28.5q33 0 73 -15.5t85 -31.5q43 -16 86 -30.5t82 -14.5q113 0 180 72q18 25 30.5 43t20.5 43.5t12 65.5t4 108h-225q8 -37 3 -65.5t-15 -28.5 q-29 0 -59.5 14t-65.5 31q-47 20 -96 34.5t-99 14.5q-133 0 -191 -86t-58 -246z" />
<glyph unicode="&#xd2;" horiz-adv-x="1769" d="M104 698q0 -158 60.5 -293t165 -236t247 -158.5t306.5 -57.5t306 57.5t247.5 158.5t166 236t60.5 293q0 156 -60.5 292t-166 236.5t-247.5 159t-306 58.5t-306.5 -58.5t-247 -159t-165 -236.5t-60.5 -292zM389 698q0 106 39 197.5t105.5 159t156.5 105.5t195 38 q104 0 194 -38t158 -105.5t105.5 -159t37.5 -197.5t-37.5 -197t-105.5 -159t-158 -105.5t-194 -37.5t-194.5 37.5t-157 105.5t-105.5 159t-39 197zM606 1939l328 -463l127 92l-289 469z" />
<glyph unicode="&#xd3;" horiz-adv-x="1763" d="M104 698q0 -158 60.5 -293t165 -236t247 -158.5t306.5 -57.5t306 57.5t247.5 158.5t166 236t60.5 293q0 156 -60.5 292t-166 236.5t-247.5 159t-306 58.5t-306.5 -58.5t-247 -159t-165 -236.5t-60.5 -292zM389 698q0 106 39 197.5t105.5 159t156.5 105.5t195 38 q104 0 194 -38t158 -105.5t105.5 -159t37.5 -197.5t-37.5 -197t-105.5 -159t-158 -105.5t-194 -37.5t-194.5 37.5t-157 105.5t-105.5 159t-39 197zM754 1552l137 -86l307 457l-156 115z" />
<glyph unicode="&#xd4;" horiz-adv-x="1761" d="M104 698q0 -158 60.5 -293t165 -236t247 -158.5t306.5 -57.5t306 57.5t247.5 158.5t166 236t60.5 293q0 156 -60.5 292t-166 236.5t-247.5 159t-306 58.5t-306.5 -58.5t-247 -159t-165 -236.5t-60.5 -292zM389 698q0 106 39 197.5t105.5 159t156.5 105.5t195 38 q104 0 194 -38t158 -105.5t105.5 -159t37.5 -197.5t-37.5 -197t-105.5 -159t-158 -105.5t-194 -37.5t-194.5 37.5t-157 105.5t-105.5 159t-39 197zM475 1499h260l154 164l147 -164h264l-301 465h-221z" />
<glyph unicode="&#xd5;" horiz-adv-x="1763" d="M104 698q0 -158 60.5 -293t165 -236t247 -158.5t306.5 -57.5t306 57.5t247.5 158.5t166 236t60.5 293q0 156 -60.5 292t-166 236.5t-247.5 159t-306 58.5t-306.5 -58.5t-247 -159t-165 -236.5t-60.5 -292zM389 698q0 106 39 197.5t105.5 159t156.5 105.5t195 38 q104 0 194 -38t158 -105.5t105.5 -159t37.5 -197.5t-37.5 -197t-105.5 -159t-158 -105.5t-194 -37.5t-194.5 37.5t-157 105.5t-105.5 159t-39 197zM471 1579h221q-23 35 -11.5 63.5t24.5 28.5q33 0 72.5 -15.5t84.5 -31.5q43 -16 86 -30.5t82 -14.5q113 0 180 72 q18 25 30.5 43t21 43.5t12.5 65.5t4 108h-225q8 -37 3 -65.5t-16 -28.5q-29 0 -59.5 14t-65.5 31q-47 20 -96 34.5t-98 14.5q-133 0 -191.5 -86t-58.5 -246z" />
<glyph unicode="&#xd6;" horiz-adv-x="1761" d="M104 698q0 -158 60.5 -293t165 -236t247 -158.5t306.5 -57.5t306 57.5t247.5 158.5t166 236t60.5 293q0 156 -60.5 292t-166 236.5t-247.5 159t-306 58.5t-306.5 -58.5t-247 -159t-165 -236.5t-60.5 -292zM389 698q0 106 39 197.5t105.5 159t156.5 105.5t195 38 q104 0 194 -38t158 -105.5t105.5 -159t37.5 -197.5t-37.5 -197t-105.5 -159t-158 -105.5t-194 -37.5t-194.5 37.5t-157 105.5t-105.5 159t-39 197zM455 1683l211 -208l213 208l-213 215zM905 1683l215 -210l211 210l-211 213z" />
<glyph unicode="&#xd7;" horiz-adv-x="1214" d="M102 399l179 -176l323 324l324 -324l178 176l-324 324l324 324l-178 178l-324 -324l-323 324l-179 -178l324 -324z" />
<glyph unicode="&#xd8;" horiz-adv-x="1769" d="M109 717q0 -147 47 -273.5t135 -226.5l-133 -143l207 -158l124 139q84 -47 181.5 -73.5t216.5 -26.5q164 0 306 57.5t247.5 157.5t166 236.5t60.5 293.5q0 141 -47 260t-131 211l141 156l-209 143l-123 -135q-84 49 -185 80t-226 31q-164 0 -306.5 -58.5t-247 -158 t-164.5 -231.5t-60 -281zM393 700q0 106 39 197.5t106.5 159t160 105.5t198.5 38q61 0 122.5 -15.5t104.5 -43.5l-649 -717q-39 53 -60.5 123.5t-21.5 152.5zM668 254l639 713q37 -57 56 -121t19 -146q0 -106 -37.5 -198t-104 -160t-157 -105.5t-194.5 -37.5q-66 0 -123 16 t-98 39z" />
<glyph unicode="&#xd9;" horiz-adv-x="1540" d="M131 612q0 -166 49 -290.5t133 -207.5t197 -125t242 -42q96 0 195.5 32.5t178.5 94.5v-80l271 -84v1556l-275 -69v-768q0 -119 -32.5 -202t-85 -135t-119 -75.5t-133.5 -23.5q-70 0 -132.5 24.5t-109.5 76.5t-74.5 132t-27.5 188v783l-277 69v-854zM514 1939l328 -462 l127 92l-289 469z" />
<glyph unicode="&#xda;" horiz-adv-x="1544" d="M131 612q0 -166 49 -290.5t133 -207.5t197 -125t242 -42q96 0 195.5 32.5t178.5 94.5v-80l271 -84v1556l-275 -69v-768q0 -119 -32.5 -202t-85 -135t-119 -75.5t-133.5 -23.5q-70 0 -132.5 24.5t-109.5 76.5t-74.5 132t-27.5 188v783l-277 69v-854zM627 1552l137 -86 l307 457l-156 115z" />
<glyph unicode="&#xdb;" horiz-adv-x="1540" d="M131 612q0 -166 49 -290.5t133 -207.5t197 -125t242 -42q96 0 195.5 32.5t178.5 94.5v-80l271 -84v1556l-275 -69v-768q0 -119 -32.5 -202t-85 -135t-119 -75.5t-133.5 -23.5q-70 0 -132.5 24.5t-109.5 76.5t-74.5 132t-27.5 188v783l-277 69v-854zM348 1499h260l154 164 l147 -164h265l-302 465h-221z" />
<glyph unicode="&#xdc;" horiz-adv-x="1540" d="M131 612q0 -166 49 -290.5t133 -207.5t197 -125t242 -42q96 0 195.5 32.5t178.5 94.5v-80l271 -84v1556l-275 -69v-768q0 -119 -32.5 -202t-85 -135t-119 -75.5t-133.5 -23.5q-70 0 -132.5 24.5t-109.5 76.5t-74.5 132t-27.5 188v783l-277 69v-854zM328 1683l211 -208 l213 208l-213 215zM778 1683l215 -210l211 210l-211 213z" />
<glyph unicode="&#xdd;" horiz-adv-x="1353" d="M102 1378l547 -651v-752h279v752l547 653l-238 115l-449 -526l-448 530zM610 1552l135 -86l310 457l-156 115z" />
<glyph unicode="&#xde;" horiz-adv-x="1146" d="M158 -27h278v310h123q152 0 253 37.5t161.5 97t85 135.5t24.5 154q0 86 -28.5 161.5t-90 133t-159.5 91t-236 33.5h-133v306h-278v-1459zM436 514v377h129q125 0 179.5 -55.5t54.5 -130.5q0 -39 -13.5 -74t-42 -60.5t-75.5 -41t-115 -15.5h-117z" />
<glyph unicode="&#xdf;" horiz-adv-x="1146" d="M129 8l266 -102v1057q0 53 8.5 100t28 83t53 56.5t86.5 20.5q74 0 118 -49.5t44 -126.5q0 -66 -52 -122.5t-149 -66.5v-199q123 -6 191 -68.5t68 -168.5q0 -104 -45.5 -165.5t-116.5 -61.5q-31 0 -51.5 5t-59.5 21l-80 -231q66 -23 104 -30t91 -7q94 0 173 35t136 97 t89 149.5t32 189.5q0 135 -56.5 222t-140.5 134q37 18 63.5 53t43 74t25 78t8.5 68q0 86 -32 157.5t-90.5 123.5t-138 81t-174.5 29q-213 0 -327.5 -121t-114.5 -344v-971z" />
<glyph unicode="&#xe0;" horiz-adv-x="993" d="M80 289q0 -59 25.5 -116.5t69.5 -105t102.5 -76t125.5 -28.5q33 0 72 2t77 6t70.5 9.5t51.5 9.5l196 -66v785q0 90 -33.5 148t-85 92t-109.5 47.5t-110 13.5q-98 0 -209.5 -21.5t-226.5 -91.5l109 -215q72 53 150.5 76.5t146.5 23.5q47 0 74.5 -24.5t27.5 -61.5v-43 q-88 0 -181 -12t-169 -52t-125 -111.5t-49 -188.5zM236 1493l327 -463l127 92l-289 469zM352 289q0 45 21.5 73.5t57.5 44t81 20.5t92 5v-221q-10 -4 -30.5 -8t-44 -7t-49 -5.5t-46.5 -2.5q-35 0 -58.5 30t-23.5 71z" />
<glyph unicode="&#xe1;" horiz-adv-x="995" d="M80 289q0 -59 25.5 -116.5t69.5 -105t102.5 -76t125.5 -28.5q33 0 72 2t77 6t70.5 9.5t51.5 9.5l196 -66v785q0 90 -33.5 148t-85 92t-109.5 47.5t-110 13.5q-98 0 -209.5 -21.5t-226.5 -91.5l109 -215q72 53 150.5 76.5t146.5 23.5q47 0 74.5 -24.5t27.5 -61.5v-43 q-88 0 -181 -12t-169 -52t-125 -111.5t-49 -188.5zM352 289q0 45 21.5 73.5t57.5 44t81 20.5t92 5v-221q-10 -4 -30.5 -8t-44 -7t-49 -5.5t-46.5 -2.5q-35 0 -58.5 30t-23.5 71zM367 1122l137 -86l307 457l-156 115z" />
<glyph unicode="&#xe2;" horiz-adv-x="993" d="M70 1053h260l153 164l148 -164h264l-301 465h-221zM80 289q0 -59 25.5 -116.5t69.5 -105t102.5 -76t125.5 -28.5q33 0 72 2t77 6t70.5 9.5t51.5 9.5l196 -66v785q0 90 -33.5 148t-85 92t-109.5 47.5t-110 13.5q-98 0 -209.5 -21.5t-226.5 -91.5l109 -215 q72 53 150.5 76.5t146.5 23.5q47 0 74.5 -24.5t27.5 -61.5v-43q-88 0 -181 -12t-169 -52t-125 -111.5t-49 -188.5zM352 289q0 45 21.5 73.5t57.5 44t81 20.5t92 5v-221q-10 -4 -30.5 -8t-44 -7t-49 -5.5t-46.5 -2.5q-35 0 -58.5 30t-23.5 71z" />
<glyph unicode="&#xe3;" horiz-adv-x="993" d="M80 289q0 -59 25.5 -116.5t69.5 -105t102.5 -76t125.5 -28.5q33 0 72 2t77 6t70.5 9.5t51.5 9.5l196 -66v785q0 90 -33.5 148t-85 92t-109.5 47.5t-110 13.5q-98 0 -209.5 -21.5t-226.5 -91.5l109 -215q72 53 150.5 76.5t146.5 23.5q47 0 74.5 -24.5t27.5 -61.5v-43 q-88 0 -181 -12t-169 -52t-125 -111.5t-49 -188.5zM96 1133h221q-23 35 -11.5 63.5t24.5 28.5q33 0 72.5 -15.5t84.5 -31.5q43 -16 86 -30.5t82 -14.5q113 0 181 71q18 25 30.5 43.5t20.5 44t12 65.5t4 107h-225q8 -37 3 -65.5t-15 -28.5q-29 0 -60 14.5t-65 30.5 q-47 20 -96.5 34.5t-98.5 14.5q-133 0 -191.5 -86t-58.5 -245zM352 289q0 45 21.5 73.5t57.5 44t81 20.5t92 5v-221q-10 -4 -30.5 -8t-44 -7t-49 -5.5t-46.5 -2.5q-35 0 -58.5 30t-23.5 71z" />
<glyph unicode="&#xe4;" horiz-adv-x="991" d="M70 1253l211 -209l213 209l-213 215zM80 289q0 -59 25.5 -116.5t69.5 -105t102.5 -76t125.5 -28.5q33 0 72 2t77 6t70.5 9.5t51.5 9.5l196 -66v785q0 90 -33.5 148t-85 92t-109.5 47.5t-110 13.5q-98 0 -209.5 -21.5t-226.5 -91.5l109 -215q72 53 150.5 76.5t146.5 23.5 q47 0 74.5 -24.5t27.5 -61.5v-43q-88 0 -181 -12t-169 -52t-125 -111.5t-49 -188.5zM352 289q0 45 21.5 73.5t57.5 44t81 20.5t92 5v-221q-10 -4 -30.5 -8t-44 -7t-49 -5.5t-46.5 -2.5q-35 0 -58.5 30t-23.5 71zM520 1253l215 -211l211 211l-211 215z" />
<glyph unicode="&#xe5;" horiz-adv-x="991" d="M80 289q0 -59 25.5 -116.5t69.5 -105t102.5 -76t125.5 -28.5q33 0 72 2t77 6t70.5 9.5t51.5 9.5l196 -66v785q0 90 -33.5 148t-85 92t-109.5 47.5t-110 13.5q-98 0 -209.5 -21.5t-226.5 -91.5l109 -215q72 53 150.5 76.5t146.5 23.5q47 0 74.5 -24.5t27.5 -61.5v-43 q-88 0 -181 -12t-169 -52t-125 -111.5t-49 -188.5zM264 1311q0 -55 24.5 -101.5t63.5 -79t83 -50t85 -17.5q53 0 99.5 19.5t80 53t53 79t19.5 96.5t-19.5 95t-53 77t-80 52t-99.5 19t-99 -19t-81 -52t-55.5 -77t-20.5 -95zM352 289q0 45 21.5 73.5t57.5 44t81 20.5t92 5 v-221q-10 -4 -30.5 -8t-44 -7t-49 -5.5t-46.5 -2.5q-35 0 -58.5 30t-23.5 71zM430 1305q0 41 26.5 68.5t65.5 27.5t65.5 -27.5t26.5 -68.5q0 -37 -26.5 -64t-65.5 -27t-65.5 27t-26.5 64z" />
<glyph unicode="&#xe6;" horiz-adv-x="1464" d="M66 846l118 -203q74 59 153 88t144 29q41 0 62.5 -25.5t21.5 -72.5v-11q-125 -10 -218 -35.5t-155.5 -72.5t-93 -119t-30.5 -176q0 -66 23.5 -120t66.5 -94t101 -62.5t126 -22.5q76 0 150.5 25.5t179.5 93.5q59 -66 122.5 -92.5t143.5 -26.5q106 0 214 31.5t212 105.5 l-107 215q-78 -66 -146.5 -90.5t-145.5 -24.5q-29 0 -59.5 11.5t-56.5 35t-42 62.5t-16 94v37h552q0 279 -101 424t-318 145q-74 0 -127.5 -22.5t-108.5 -75.5q-43 53 -97 75.5t-138 22.5q-111 0 -223.5 -37.5t-206.5 -111.5zM332 260q0 76 51 119t182 49v-180 q-49 -37 -88 -53.5t-74 -16.5q-31 0 -51 23.5t-20 58.5zM842 627q2 55 37.5 99t89.5 44q51 0 95 -42t46 -101h-268z" />
<glyph unicode="&#xe7;" horiz-adv-x="1060" d="M76 465q0 -113 40 -207t110.5 -161.5t170 -105.5t217.5 -38q37 0 85.5 6t102.5 19.5t110.5 32t109.5 42.5l-107 215q-113 -43 -177 -59t-117 -16q-125 0 -198 73.5t-73 202.5t72 208t188 79q25 0 50.5 -3t59.5 -12.5t77 -24t102 -38.5l102 215q-106 47 -213.5 76.5 t-179.5 29.5q-115 0 -213 -38.5t-168.5 -109.5t-110.5 -169t-40 -217zM326 -444q12 -2 32.5 -6.5t43 -8.5t43 -7t32.5 -3q143 -2 226 50t83 161q0 68 -30.5 113t-77.5 59l22 117h-196l-64 -236q55 4 98.5 -4t43.5 -33q0 -35 -58 -39q-31 -2 -68.5 0t-90.5 13z" />
<glyph unicode="&#xe8;" horiz-adv-x="1101" d="M61 485q0 -117 38 -214t106.5 -167.5t166 -110.5t216.5 -40q117 0 220 44t187 112l-116 204q-68 -59 -131.5 -89.5t-139.5 -30.5q-57 0 -106 16t-85 47t-55.5 72t-17.5 90h668q0 156 -41 266.5t-106.5 181t-146.5 102t-161 31.5q-111 0 -203 -37.5t-156.5 -105.5 t-100.5 -163t-36 -208zM289 1493l327 -463l127 92l-288 469zM360 629q20 61 67.5 101t115.5 40t109.5 -43t56.5 -98h-349z" />
<glyph unicode="&#xe9;" horiz-adv-x="1105" d="M61 485q0 -117 38 -214t106.5 -167.5t166 -110.5t216.5 -40q117 0 220 44t187 112l-116 204q-68 -59 -131.5 -89.5t-139.5 -30.5q-57 0 -106 16t-85 47t-55.5 72t-17.5 90h668q0 156 -41 266.5t-106.5 181t-146.5 102t-161 31.5q-111 0 -203 -37.5t-156.5 -105.5 t-100.5 -163t-36 -208zM360 629q20 61 67.5 101t115.5 40t109.5 -43t56.5 -98h-349zM401 1106l138 -86l307 457l-156 114z" />
<glyph unicode="&#xea;" horiz-adv-x="1101" d="M61 485q0 -117 38 -214t106.5 -167.5t166 -110.5t216.5 -40q117 0 220 44t187 112l-116 204q-68 -59 -131.5 -89.5t-139.5 -30.5q-57 0 -106 16t-85 47t-55.5 72t-17.5 90h668q0 156 -41 266.5t-106.5 181t-146.5 102t-161 31.5q-111 0 -203 -37.5t-156.5 -105.5 t-100.5 -163t-36 -208zM139 1053h262l152 164l147 -164h265l-301 465h-220zM360 629q20 61 67.5 101t115.5 40t109.5 -43t56.5 -98h-349z" />
<glyph unicode="&#xeb;" horiz-adv-x="1097" d="M61 485q0 -117 38 -214t106.5 -167.5t166 -110.5t216.5 -40q117 0 220 44t187 112l-116 204q-68 -59 -131.5 -89.5t-139.5 -30.5q-57 0 -106 16t-85 47t-55.5 72t-17.5 90h668q0 156 -41 266.5t-106.5 181t-146.5 102t-161 31.5q-111 0 -203 -37.5t-156.5 -105.5 t-100.5 -163t-36 -208zM135 1237l211 -209l213 209l-213 215zM360 629q20 61 67.5 101t115.5 40t109.5 -43t56.5 -98h-349zM586 1237l217 -211l211 211l-211 213z" />
<glyph unicode="&#xec;" horiz-adv-x="552" d="M-90 1493l328 -463l127 92l-289 469zM145 -27h269v1084l-269 -111v-973z" />
<glyph unicode="&#xed;" horiz-adv-x="571" d="M104 1106l138 -86l307 457l-156 114zM145 -27h269v1084l-269 -111v-973z" />
<glyph unicode="&#xee;" horiz-adv-x="587" d="M-131 1085h262l152 164l149 -164h262l-299 467h-221zM156 -27h268v1084l-268 -111v-973z" />
<glyph unicode="&#xef;" horiz-adv-x="602" d="M-133 1253l211 -209l213 209l-213 215zM158 -27h268v1084l-268 -111v-973zM317 1253l218 -211l210 211l-210 215z" />
<glyph unicode="&#xf0;" horiz-adv-x="1234" d="M78 455q0 -111 42 -205t114.5 -164t172 -109.5t214.5 -39.5q129 0 232 40.5t177 116.5t114 184.5t40 241.5q0 199 -61.5 372t-200.5 304l188 78l-94 203l-293 -119q-121 76 -268 125l-117 -219q37 -10 53.5 -15.5t46.5 -19.5l-180 -76l100 -192l304 122 q20 -12 39.5 -29.5t35 -37t27.5 -39t18 -31.5h-4q-51 23 -125 23q-123 0 -227 -39t-182 -108.5t-122 -163t-44 -203.5zM344 449q0 63 22.5 117.5t60.5 95t90 64.5t114 24q63 0 115.5 -21.5t89 -59.5t57 -92.5t20.5 -117.5q0 -135 -75.5 -217t-202.5 -82q-63 0 -116.5 21.5 t-92.5 60.5t-60.5 92t-21.5 115z" />
<glyph unicode="&#xf1;" horiz-adv-x="1124" d="M121 -27h266v756q70 35 195 35q74 0 118.5 -57.5t44.5 -167.5v-566h267v600q0 217 -114 322.5t-302 105.5q-84 0 -157.5 -14t-135.5 -37v-4l-182 98v-1071zM162 1133h221q-23 35 -11.5 63.5t23.5 28.5q33 0 73 -15.5t85 -31.5q43 -16 86 -30.5t82 -14.5q113 0 180 71 q18 25 30.5 43.5t21 44t12.5 65.5t4 107h-226q8 -37 3 -65.5t-15 -28.5q-29 0 -59.5 14.5t-65.5 30.5q-47 20 -96 34.5t-98 14.5q-133 0 -191.5 -86t-58.5 -245z" />
<glyph unicode="&#xf2;" horiz-adv-x="1200" d="M66 471q0 -111 40.5 -207t112.5 -165.5t168 -109.5t209 -40t211 40t169 109.5t111.5 165.5t40.5 207q0 113 -40.5 208t-111.5 165.5t-169 110.5t-211 40t-209 -40t-168 -110.5t-112.5 -165.5t-40.5 -208zM340 471q0 61 19.5 113.5t54.5 91.5t82 60.5t100 21.5 q55 0 101 -22.5t81 -60.5t54.5 -90.5t19.5 -113.5t-19.5 -113.5t-54.5 -89.5t-81 -58.5t-101 -21.5q-53 0 -100 21.5t-82 58.5t-54.5 89.5t-19.5 113.5zM354 1493l328 -463l127 92l-289 469z" />
<glyph unicode="&#xf3;" horiz-adv-x="1196" d="M66 471q0 -111 40.5 -207t112.5 -165.5t168 -109.5t209 -40t211 40t169 109.5t111.5 165.5t40.5 207q0 113 -40.5 208t-111.5 165.5t-169 110.5t-211 40t-209 -40t-168 -110.5t-112.5 -165.5t-40.5 -208zM340 471q0 61 19.5 113.5t54.5 91.5t82 60.5t100 21.5 q55 0 101 -22.5t81 -60.5t54.5 -90.5t19.5 -113.5t-19.5 -113.5t-54.5 -89.5t-81 -58.5t-101 -21.5q-53 0 -100 21.5t-82 58.5t-54.5 89.5t-19.5 113.5zM467 1106l137 -86l307 457l-155 114z" />
<glyph unicode="&#xf4;" horiz-adv-x="1196" d="M66 471q0 -111 40.5 -207t112.5 -165.5t168 -109.5t209 -40t211 40t169 109.5t111.5 165.5t40.5 207q0 113 -40.5 208t-111.5 165.5t-169 110.5t-211 40t-209 -40t-168 -110.5t-112.5 -165.5t-40.5 -208zM188 1053h261l153 164l148 -164h264l-301 465h-221zM340 471 q0 61 19.5 113.5t54.5 91.5t82 60.5t100 21.5q55 0 101 -22.5t81 -60.5t54.5 -90.5t19.5 -113.5t-19.5 -113.5t-54.5 -89.5t-81 -58.5t-101 -21.5q-53 0 -100 21.5t-82 58.5t-54.5 89.5t-19.5 113.5z" />
<glyph unicode="&#xf5;" horiz-adv-x="1202" d="M66 471q0 -111 40.5 -207t112.5 -165.5t168 -109.5t209 -40t211 40t169 109.5t111.5 165.5t40.5 207q0 113 -40.5 208t-111.5 165.5t-169 110.5t-211 40t-209 -40t-168 -110.5t-112.5 -165.5t-40.5 -208zM215 1133h221q-23 35 -11.5 63.5t24.5 28.5q33 0 72.5 -15.5 t84.5 -31.5q43 -16 86 -30.5t82 -14.5q113 0 180 71q18 25 30.5 43.5t21 44t12.5 65.5t4 107h-225q8 -37 3 -65.5t-16 -28.5q-29 0 -59.5 14.5t-65.5 30.5q-47 20 -96 34.5t-98 14.5q-133 0 -191.5 -86t-58.5 -245zM340 471q0 61 19.5 113.5t54.5 91.5t82 60.5t100 21.5 q55 0 101 -22.5t81 -60.5t54.5 -90.5t19.5 -113.5t-19.5 -113.5t-54.5 -89.5t-81 -58.5t-101 -21.5q-53 0 -100 21.5t-82 58.5t-54.5 89.5t-19.5 113.5z" />
<glyph unicode="&#xf6;" horiz-adv-x="1193" d="M66 471q0 -111 40.5 -207t112.5 -165.5t168 -109.5t209 -40t211 40t169 109.5t111.5 165.5t40.5 207q0 113 -40.5 208t-111.5 165.5t-169 110.5t-211 40t-209 -40t-168 -110.5t-112.5 -165.5t-40.5 -208zM172 1237l211 -209l213 209l-213 215zM340 471q0 61 19.5 113.5 t54.5 91.5t82 60.5t100 21.5q55 0 101 -22.5t81 -60.5t54.5 -90.5t19.5 -113.5t-19.5 -113.5t-54.5 -89.5t-81 -58.5t-101 -21.5q-53 0 -100 21.5t-82 58.5t-54.5 89.5t-19.5 113.5zM623 1237l217 -211l211 211l-211 213z" />
<glyph unicode="&#xf7;" horiz-adv-x="1398" d="M111 627h1177v233h-1177v-233zM537 418q0 -63 45.5 -106.5t115.5 -43.5t117 43t47 107q0 63 -47 107t-117 44q-72 0 -116.5 -44t-44.5 -107zM537 1069q0 -63 45.5 -107t115.5 -44t117 44t47 107t-47 106.5t-117 43.5q-72 0 -116.5 -43t-44.5 -107z" />
<glyph unicode="&#xf8;" horiz-adv-x="1234" d="M90 475q0 -104 28.5 -185t80.5 -140v-306l166 160q47 -20 108.5 -34.5t140.5 -14.5q113 0 209.5 40t167 109.5t109.5 165t39 205.5q0 104 -31 186t-86 152v279l-158 -152q-51 29 -115.5 45t-134.5 16q-113 0 -209 -39.5t-165.5 -110.5t-109.5 -167t-40 -209zM344 473 q0 66 19.5 121t54.5 96t83 63.5t103 22.5q53 0 96 -24l-325 -373q-31 37 -31 94zM526 213l328 373q20 -20 27.5 -48t7.5 -63q0 -63 -18.5 -116.5t-51.5 -92.5t-78 -60.5t-98 -21.5q-41 0 -65.5 7.5t-51.5 21.5z" />
<glyph unicode="&#xf9;" horiz-adv-x="1130" d="M94 371q0 -117 44 -197t110.5 -130t144.5 -71.5t148 -21.5q72 0 148.5 13t131.5 34l187 -125v1100h-271v-742q-37 -23 -80 -29.5t-108 -6.5q-33 0 -66.5 11t-60.5 32.5t-43.5 55.5t-16.5 79v600h-268v-602zM301 1493l328 -463l127 92l-289 469z" />
<glyph unicode="&#xfa;" horiz-adv-x="1134" d="M94 371q0 -117 44 -197t110.5 -130t144.5 -71.5t148 -21.5q72 0 148.5 13t131.5 34l187 -125v1100h-271v-742q-37 -23 -80 -29.5t-108 -6.5q-33 0 -66.5 11t-60.5 32.5t-43.5 55.5t-16.5 79v600h-268v-602zM414 1106l137 -86l307 457l-156 114z" />
<glyph unicode="&#xfb;" horiz-adv-x="1138" d="M94 371q0 -117 44 -197t110.5 -130t144.5 -71.5t148 -21.5q72 0 148.5 13t131.5 34l187 -125v1100h-271v-742q-37 -23 -80 -29.5t-108 -6.5q-33 0 -66.5 11t-60.5 32.5t-43.5 55.5t-16.5 79v600h-268v-602zM143 1053h263l151 164l148 -164h264l-301 465h-222z" />
<glyph unicode="&#xfc;" horiz-adv-x="1140" d="M94 371q0 -117 44 -197t110.5 -130t144.5 -71.5t148 -21.5q72 0 148.5 13t131.5 34l187 -125v1100h-271v-742q-37 -23 -80 -29.5t-108 -6.5q-33 0 -66.5 11t-60.5 32.5t-43.5 55.5t-16.5 79v600h-268v-602zM131 1241l211 -209l213 209l-213 215zM582 1241l217 -211 l211 211l-211 215z" />
<glyph unicode="&#xfd;" horiz-adv-x="1024" d="M-43 -174l102 -211q37 4 102.5 20.5t140.5 59.5t152.5 121t141.5 204l448 910l-225 127l-274 -559l-293 559l-225 -127l383 -719q-6 -16 -24.5 -52t-39.5 -71q-37 -70 -82 -116t-94 -74.5t-102.5 -45t-110.5 -26.5zM410 1110l135 -86l309 455l-156 114z" />
<glyph unicode="&#xfe;" horiz-adv-x="1169" d="M133 -471h266v448q47 -16 86 -21t80 -5q109 0 204 41t165 111.5t109.5 167t39.5 206.5q0 113 -38.5 208t-107.5 165t-163 108.5t-205 38.5q-43 0 -81.5 -5t-88.5 -21v454h-266v-1896zM399 225v500q41 16 72 23.5t66 7.5q59 0 108 -21.5t85 -59.5t55.5 -91.5t19.5 -114.5 q0 -123 -69.5 -198.5t-186.5 -75.5q-41 0 -75 7t-75 23z" />
<glyph unicode="&#xff;" horiz-adv-x="1003" d="M-63 -158l102 -211q37 6 102.5 21.5t140 58.5t152.5 121t141 205l449 909l-225 127l-275 -559l-293 559l-225 -127l383 -719q-6 -14 -24.5 -50t-38.5 -71q-37 -72 -82 -117.5t-94.5 -74.5t-102.5 -45t-110 -27zM80 1311l211 -211l213 211l-213 213zM530 1309l215 -211 l211 211l-211 215z" />
<glyph unicode="&#x152;" horiz-adv-x="1912" d="M74 700q0 -125 45 -254t141 -234.5t243.5 -172t354.5 -66.5h963l-47 234h-590v381h579v233h-579v373h577l58 233h-959q-201 0 -348 -63.5t-244.5 -166.5t-145.5 -233t-48 -264zM358 700q0 84 29 171t91.5 159t160.5 118t240 46h26v-987h-20q-135 0 -234.5 43t-164 113.5 t-96.5 158.5t-32 178z" />
<glyph unicode="&#x153;" horiz-adv-x="1798" d="M84 473q0 -123 40 -220t108.5 -165t161.5 -102.5t200 -34.5q111 0 197 40t163 128q61 -82 143.5 -125t174.5 -43q106 0 215.5 33.5t208.5 115.5l-101 197q-76 -63 -157.5 -92t-153.5 -29q-29 0 -59.5 15.5t-56 45t-44 73.5t-18.5 100h614q0 135 -30.5 244.5t-89 185 t-145.5 116.5t-198 41q-90 0 -174 -36.5t-129 -108.5q-66 78 -148.5 111.5t-191.5 33.5q-117 0 -215 -38.5t-167.5 -107.5t-108.5 -165t-39 -213zM356 477q0 127 68 203t180 76q104 0 167 -70.5t63 -193.5q0 -133 -66 -215t-170 -82q-53 0 -97 21.5t-76 58t-50.5 89 t-18.5 113.5zM1118 635q2 72 52.5 110.5t107.5 38.5q66 0 110 -38.5t48 -110.5h-318z" />
<glyph unicode="&#x178;" horiz-adv-x="1323" d="M84 1378l547 -651v-752h278v752l545 653l-235 115l-449 -526l-448 530zM326 1683l211 -208l213 208l-213 215zM776 1683l217 -210l211 210l-211 213z" />
<glyph unicode="&#x2c6;" horiz-adv-x="765" d="M-27 1053h260l154 164l148 -164h264l-301 465h-222z" />
<glyph unicode="&#x2dc;" horiz-adv-x="808" d="M0 1133h221q-23 35 -11.5 63.5t23.5 28.5q33 0 73 -15.5t85 -31.5q43 -16 86 -30.5t82 -14.5q113 0 180 71q18 25 30.5 43.5t21 44t12.5 65.5t4 107h-225q8 -37 3 -65.5t-16 -28.5q-29 0 -59.5 14.5t-65.5 30.5q-47 20 -96 34.5t-98 14.5q-133 0 -191.5 -86t-58.5 -245z " />
<glyph unicode="&#x2000;" horiz-adv-x="1019" />
<glyph unicode="&#x2001;" horiz-adv-x="2038" />
<glyph unicode="&#x2002;" horiz-adv-x="1019" />
<glyph unicode="&#x2003;" horiz-adv-x="2038" />
<glyph unicode="&#x2004;" horiz-adv-x="679" />
<glyph unicode="&#x2005;" horiz-adv-x="509" />
<glyph unicode="&#x2006;" horiz-adv-x="339" />
<glyph unicode="&#x2007;" horiz-adv-x="339" />
<glyph unicode="&#x2008;" horiz-adv-x="254" />
<glyph unicode="&#x2009;" horiz-adv-x="407" />
<glyph unicode="&#x200a;" horiz-adv-x="113" />
<glyph unicode="&#x2010;" d="M80 395h635l51 242h-635z" />
<glyph unicode="&#x2011;" d="M80 395h635l51 242h-635z" />
<glyph unicode="&#x2012;" d="M80 395h635l51 242h-635z" />
<glyph unicode="&#x2013;" horiz-adv-x="1140" d="M-37 420h1161l54 211h-1160z" />
<glyph unicode="&#x2014;" horiz-adv-x="2099" d="M-29 420h2118l39 211h-2118z" />
<glyph unicode="&#x2018;" horiz-adv-x="544" d="M119 874l317 78l-55 246q0 35 8 63.5t31 65.5v252q-154 -111 -227.5 -225.5t-73.5 -202.5v-277z" />
<glyph unicode="&#x2019;" horiz-adv-x="542" d="M102 1468l56 -247q-2 -35 -9.5 -63t-29.5 -64v-252q154 113 226.5 226.5t72.5 201.5v274z" />
<glyph unicode="&#x201a;" horiz-adv-x="567" d="M111 252l55 -256q-2 -35 -9 -61.5t-30 -63.5v-254q154 111 226.5 226.5t72.5 201.5v254z" />
<glyph unicode="&#x201c;" horiz-adv-x="1017" d="M119 915l315 62l-53 250q2 35 23.5 70.5t58.5 70.5l-96 201q-127 -94 -187.5 -196.5t-60.5 -192.5v-265zM586 915l315 58l-55 250q4 33 24.5 68.5t55.5 70.5l-90 207q-129 -94 -189.5 -197.5t-60.5 -195.5v-261z" />
<glyph unicode="&#x201d;" horiz-adv-x="999" d="M70 1096l131 -162q119 72 175 183.5t56 225.5v228l-315 -60l51 -241q6 -23 -3 -48.5t-24.5 -49t-35 -44t-35.5 -32.5zM520 1100l135 -170q55 35 98.5 84t72 105.5t44 113.5t15.5 110v228l-314 -60l52 -243q6 -23 -3.5 -48.5t-25.5 -49t-36.5 -43t-37.5 -27.5z" />
<glyph unicode="&#x201e;" horiz-adv-x="1046" d="M127 227l55 -254q-2 -35 -9 -62.5t-30 -64.5v-254q154 111 226.5 226.5t72.5 201.5v254zM592 227l53 -254q0 -35 -8 -62.5t-33 -64.5v-254q154 111 227.5 226.5t73.5 201.5v254z" />
<glyph unicode="&#x2022;" horiz-adv-x="1146" d="M262 702q0 -63 25.5 -119.5t69.5 -98.5t102.5 -66.5t124.5 -24.5q68 0 126 24.5t102 66.5t69.5 98.5t25.5 119.5t-25.5 120t-69.5 99t-102 66.5t-126 24.5q-66 0 -124.5 -24.5t-102.5 -66.5t-69.5 -98.5t-25.5 -120.5z" />
<glyph unicode="&#x2026;" horiz-adv-x="2025" d="M143 96l248 -237l244 252l-250 235zM762 96l248 -237l243 252l-249 235zM1399 96l248 -237l243 252l-250 235z" />
<glyph unicode="&#x202f;" horiz-adv-x="407" />
<glyph unicode="&#x2039;" d="M45 473l416 -496h342l-426 496l418 500h-330z" />
<glyph unicode="&#x203a;" horiz-adv-x="843" d="M39 -23h332l424 496l-424 500h-332l424 -500z" />
<glyph unicode="&#x205f;" horiz-adv-x="509" />
<glyph unicode="&#x2122;" horiz-adv-x="1574" d="M49 1282h258v-543h250v543h213l68 217h-707zM735 698l250 78v234l119 -160l121 162v-236l250 -78v891l-191 -110l-180 -232l-176 232l-193 110v-891z" />
<glyph unicode="&#x25fc;" horiz-adv-x="1044" d="M0 0v1044h1044v-1044h-1044z" />
</font>
</defs>
</svg>
